<?xml version="1.0" encoding="UTF-8"?>
<svg xmlns="http://www.w3.org/2000/svg" xmlns:xlink="http://www.w3.org/1999/xlink" width="498pt" height="602pt" viewBox="0 0 498 602" version="1.1">
<defs>
<clipPath id="clip1">
  <path d="M 451 447 L 497.507812 447 L 497.507812 525 L 451 525 Z M 451 447 "/>
</clipPath>
</defs>
<g id="surface1">
<path style=" stroke:none;fill-rule:evenodd;fill:rgb(34.999084%,34.999084%,34.999084%);fill-opacity:1;" d="M 187.136719 504.4375 C 167.863281 514.03125 155.9375 506.445312 156.28125 486.117188 C 156.570312 468.890625 165.285156 456.722656 186.519531 466.992188 C 191.722656 469.503906 198.378906 455.765625 194.164062 452.671875 C 192.375 451.359375 187.734375 448.960938 182.445312 447.832031 C 178.667969 447.027344 173.714844 446.523438 167.175781 446.898438 C 144.6875 448.203125 134.675781 461.976562 134.625 485.675781 C 134.574219 508.609375 145.074219 523.171875 164.816406 524.972656 C 177.523438 526.109375 187.738281 522.8125 194.390625 518.847656 C 199.574219 515.761719 192.316406 501.855469 187.136719 504.4375 Z M 187.136719 504.4375 "/>
<path style=" stroke:none;fill-rule:evenodd;fill:rgb(34.999084%,34.999084%,34.999084%);fill-opacity:1;" d="M 72.976562 517.550781 C 70.335938 514.378906 76.753906 502.570312 80.605469 504.324219 C 85.847656 506.722656 91.960938 509.929688 99.046875 507.878906 C 101.335938 507.214844 104.832031 503.714844 103.65625 500.472656 C 101.269531 493.898438 92.722656 494.90625 83.101562 488.230469 C 77.492188 484.339844 74.03125 480.300781 74.03125 469.792969 C 74.03125 458.683594 80.769531 450.902344 91.527344 448.15625 C 100.792969 445.796875 112.808594 446.960938 120.582031 451.65625 C 124.34375 453.925781 119.320312 468.03125 114.460938 465.9375 C 112.683594 465.171875 108.480469 462.277344 101.863281 463.023438 C 96.320312 463.65625 93.484375 467.148438 95.34375 471.230469 C 99.210938 479.710938 120.304688 476.210938 124.285156 494.578125 C 127.632812 509.96875 118.058594 522.808594 102.066406 524.652344 C 93.136719 525.675781 78.121094 523.988281 72.976562 517.550781 Z M 72.976562 517.550781 "/>
<path style=" stroke:none;fill-rule:evenodd;fill:rgb(34.999084%,34.999084%,34.999084%);fill-opacity:1;" d="M 421.074219 449.609375 C 429.929688 453.207031 433.699219 461.019531 433.699219 470.578125 L 433.699219 500.171875 C 433.699219 506.570312 435.011719 511.660156 435.839844 518.03125 C 436.332031 521.816406 431.757812 522.625 427.050781 523.136719 C 420.402344 523.863281 417.753906 524.664062 416.519531 522.105469 C 415.28125 519.539062 414.863281 517.398438 414.554688 514.578125 C 414.480469 513.914062 413.203125 514.132812 412.839844 514.695312 C 407.574219 522.859375 397.339844 525.097656 390.0625 524.804688 C 382.839844 524.503906 378.269531 522.84375 374.273438 516.871094 C 369.046875 509.070312 367.714844 488.039062 386.964844 480.144531 C 396.59375 476.199219 409.445312 477.140625 413.167969 477.4375 L 413.148438 470.578125 C 413.148438 465.722656 407.949219 463.851562 403.140625 463.199219 C 395.820312 462.214844 388.625 465.710938 383.492188 467.597656 C 381.425781 468.355469 379.457031 465.441406 377.394531 462.097656 C 375.46875 458.972656 374.285156 455.636719 376.765625 453.921875 C 380.949219 451.027344 386.613281 446.902344 402.832031 446.722656 C 410.902344 446.636719 416.730469 447.84375 421.074219 449.609375 Z M 393.917969 496.617188 C 388.546875 503.707031 394.652344 508.539062 399.058594 508.707031 C 405.675781 508.960938 408.640625 505.316406 413.148438 499.519531 L 413.148438 490.601562 C 406.648438 490.011719 399.167969 489.703125 393.917969 496.617188 Z M 393.917969 496.617188 "/>
<g clip-path="url(#clip1)" clip-rule="nonzero">
<path style=" stroke:none;fill-rule:evenodd;fill:rgb(34.999084%,34.999084%,34.999084%);fill-opacity:1;" d="M 491.417969 465.851562 C 494.824219 466.835938 496.367188 464.605469 497.238281 458.167969 C 497.898438 453.25 497.617188 447.839844 493.875 447.296875 C 487.855469 446.429688 479.820312 446.777344 473.359375 458.394531 C 472.976562 454.519531 472.78125 451.441406 470.957031 449.777344 C 469.328125 448.292969 466.140625 448.371094 460.996094 448.957031 C 452.144531 449.960938 451.523438 452.058594 452.082031 454.167969 C 453.539062 459.707031 454.050781 465.8125 454.027344 473.410156 L 453.890625 520.753906 C 453.886719 522.671875 455.882812 523.585938 457.792969 523.730469 C 462.734375 524.105469 465.605469 524.144531 470.546875 523.730469 C 472.441406 523.570312 474.4375 522.714844 474.441406 520.816406 L 474.574219 475.0625 C 474.585938 471.210938 477.359375 468.285156 480.808594 466.46875 C 485.339844 464.082031 488.21875 464.929688 491.417969 465.851562 Z M 491.417969 465.851562 "/>
</g>
<path style=" stroke:none;fill-rule:evenodd;fill:rgb(34.999084%,34.999084%,34.999084%);fill-opacity:1;" d="M 275.808594 485.902344 C 275.808594 507.53125 266.441406 525.066406 240.328125 525.066406 C 214.054688 525.066406 204.847656 507.53125 204.847656 485.902344 C 204.847656 464.269531 213.949219 446.734375 240.328125 446.734375 C 266.441406 446.734375 275.808594 464.269531 275.808594 485.902344 Z M 226.683594 485.898438 C 226.683594 497.996094 229.644531 507.804688 240.328125 507.804688 C 250.871094 507.804688 253.652344 498.207031 253.652344 486.109375 C 253.652344 474.011719 250.871094 463.996094 240.328125 463.996094 C 229.582031 463.996094 226.683594 473.800781 226.683594 485.898438 Z M 226.683594 485.898438 "/>
<path style=" stroke:none;fill-rule:evenodd;fill:rgb(34.999084%,34.999084%,34.999084%);fill-opacity:1;" d="M 313.21875 418.230469 L 313.246094 451.078125 C 319.441406 447.742188 323.714844 446.339844 330.742188 446.761719 C 354.832031 448.476562 359.925781 473.308594 358.003906 493.566406 C 356.492188 509.386719 349.144531 524.683594 331.59375 524.765625 C 320.097656 524.824219 315.203125 518.203125 312.242188 514.351562 C 310.945312 518.785156 308.476562 523.714844 305.523438 523.714844 C 301.648438 523.714844 298.675781 523.714844 294.800781 523.714844 C 292.800781 523.714844 291.257812 521.476562 291.257812 519.476562 L 291.257812 418.136719 C 291.257812 414.078125 299.535156 413.902344 302.214844 413.902344 C 304.976562 413.902344 313.214844 414.082031 313.21875 418.230469 Z M 313.257812 465.925781 L 313.285156 499.785156 C 315.894531 503.199219 317.40625 505.492188 321.28125 507.351562 C 323.015625 508.085938 336.492188 511.46875 337.207031 489.1875 C 337.667969 474.679688 335.59375 471.3125 332.664062 467.492188 C 330.09375 464.140625 327.339844 463.019531 323.152344 462.898438 C 318.929688 462.773438 316.054688 464.5 313.257812 465.925781 Z M 313.257812 465.925781 "/>
<path style=" stroke:none;fill-rule:evenodd;fill:rgb(34.999084%,34.999084%,34.999084%);fill-opacity:1;" d="M 57.398438 422.390625 C 59.5625 422.390625 60.941406 424.480469 60.941406 426.640625 L 60.941406 435.855469 C 60.941406 438.019531 59.5625 440.105469 57.398438 440.105469 L 22.675781 440.105469 C 22.285156 440.105469 21.964844 440.425781 21.964844 440.816406 L 21.964844 462.074219 C 21.964844 462.464844 22.285156 462.785156 22.675781 462.785156 L 53.148438 462.785156 C 55.308594 462.785156 56.691406 464.875 56.691406 467.035156 L 56.691406 476.25 C 56.691406 478.410156 55.308594 480.5 53.148438 480.5 L 22.675781 480.5 C 22.285156 480.5 21.964844 480.816406 21.964844 481.210938 L 21.964844 504.59375 C 21.964844 504.988281 22.285156 505.304688 22.675781 505.304688 L 57.398438 505.304688 C 59.5625 505.304688 60.941406 507.394531 60.941406 509.554688 L 60.941406 518.769531 C 60.941406 520.929688 59.5625 523.019531 57.398438 523.019531 L 3.539062 523.019531 C 1.542969 523.019531 -0.00390625 521.324219 -0.00390625 519.328125 L -0.00390625 425.933594 C -0.00390625 423.976562 1.585938 422.390625 3.539062 422.390625 Z M 57.398438 422.390625 "/>
<path style=" stroke:none;fill-rule:evenodd;fill:rgb(34.999084%,34.999084%,34.999084%);fill-opacity:1;" d="M 63.777344 562.707031 L 58.109375 562.707031 L 58.109375 600.972656 C 58.109375 602.121094 62.359375 602.132812 62.359375 600.972656 L 62.359375 569.082031 L 75.117188 590.34375 L 78.660156 590.34375 L 91.414062 569.082031 L 91.414062 600.972656 C 91.414062 602.15625 95.667969 602.175781 95.667969 600.972656 L 95.667969 562.707031 L 89.996094 562.707031 L 77.242188 584.675781 C 77.101562 584.914062 76.671875 584.914062 76.53125 584.675781 Z M 63.777344 562.707031 "/>
<path style=" stroke:none;fill-rule:evenodd;fill:rgb(34.999084%,34.999084%,34.999084%);fill-opacity:1;" d="M 149.523438 589.632812 L 149.523438 562.816406 C 149.523438 561.621094 145.273438 561.703125 145.273438 562.816406 L 145.273438 589.632812 C 145.273438 595.039062 139.328125 598.527344 134.246094 598.542969 C 129.09375 598.554688 123.304688 595.039062 123.304688 589.632812 L 123.304688 562.707031 C 123.304688 561.636719 119.050781 561.675781 119.050781 562.707031 L 119.050781 589.632812 C 119.050781 596.039062 123.898438 602.476562 134.300781 602.472656 C 144.480469 602.46875 149.523438 596 149.523438 589.632812 Z M 149.523438 589.632812 "/>
<path style=" stroke:none;fill-rule:evenodd;fill:rgb(34.999084%,34.999084%,34.999084%);fill-opacity:1;" d="M 203.382812 562.816406 L 203.382812 600.972656 C 203.382812 601.363281 203.066406 601.683594 202.675781 601.683594 L 199.839844 601.683594 C 199.222656 601.683594 198.769531 601.484375 198.421875 600.972656 L 177.871094 570.5 C 177.722656 570.269531 177.164062 570.222656 177.164062 570.5 L 177.164062 600.972656 C 177.164062 602.042969 172.910156 602.070312 172.910156 600.972656 L 172.910156 562.707031 C 172.910156 562.457031 173.125 562.261719 173.371094 562.261719 L 175.5 562.261719 C 176.257812 562.261719 177.144531 562.332031 177.566406 562.964844 L 198.191406 593.890625 C 198.394531 594.199219 199.132812 594.253906 199.132812 593.886719 L 199.132812 562.816406 C 199.132812 561.703125 203.382812 561.621094 203.382812 562.816406 Z M 203.382812 562.816406 "/>
<path style=" stroke:none;fill-rule:evenodd;fill:rgb(34.999084%,34.999084%,34.999084%);fill-opacity:1;" d="M 231.496094 562.808594 L 231.496094 600.894531 C 231.496094 602.007812 227.242188 602.085938 227.242188 600.894531 L 227.242188 562.808594 C 227.265625 561.703125 231.476562 561.625 231.496094 562.808594 Z M 231.496094 562.808594 "/>
<path style=" stroke:none;fill-rule:evenodd;fill:rgb(34.999084%,34.999084%,34.999084%);fill-opacity:1;" d="M 308.40625 563.386719 L 308.40625 601.476562 C 308.40625 602.589844 304.011719 602.082031 304.011719 600.886719 L 304.011719 562.800781 C 304.03125 561.699219 308.390625 562.207031 308.40625 563.386719 Z M 308.40625 563.386719 "/>
<path style=" stroke:none;fill-rule:evenodd;fill:rgb(34.999084%,34.999084%,34.999084%);fill-opacity:1;" d="M 382.785156 562.808594 L 382.785156 600.894531 C 382.785156 602.007812 378.53125 602.085938 378.53125 600.894531 L 378.53125 562.808594 C 378.554688 561.703125 382.769531 561.625 382.785156 562.808594 Z M 382.785156 562.808594 "/>
<path style=" stroke:none;fill-rule:evenodd;fill:rgb(34.999084%,34.999084%,34.999084%);fill-opacity:1;" d="M 357.511719 573.203125 C 357.566406 581.808594 352.199219 584.265625 346.234375 584.265625 L 336.609375 584.265625 L 336.609375 600.898438 C 336.609375 602.011719 332.355469 602.355469 332.355469 601.160156 L 332.355469 563.074219 C 332.355469 562.589844 332.921875 562.410156 333.40625 562.410156 L 346.234375 562.410156 C 352.242188 562.410156 357.457031 564.796875 357.511719 573.203125 Z M 336.609375 565.539062 L 336.609375 581.128906 L 346.234375 581.128906 C 350.777344 581.128906 353.546875 577.054688 353.523438 573.125 C 353.496094 569.257812 350.839844 565.539062 346.234375 565.539062 Z M 336.609375 565.539062 "/>
<path style=" stroke:none;fill-rule:evenodd;fill:rgb(34.999084%,34.999084%,34.999084%);fill-opacity:1;" d="M 440.070312 581.917969 C 440.046875 593.078125 433.585938 602.375 422.265625 602.351562 C 411.277344 602.328125 404.582031 592.953125 404.609375 581.792969 C 404.632812 570.632812 411.039062 561.921875 422.359375 561.949219 C 433.675781 561.972656 440.097656 570.761719 440.070312 581.917969 Z M 409.546875 582.121094 C 409.527344 591.175781 413.835938 598.527344 422.273438 598.546875 C 430.820312 598.566406 435.058594 591.234375 435.078125 582.179688 C 435.097656 573.121094 430.894531 565.773438 422.351562 565.753906 C 413.804688 565.734375 409.566406 573.0625 409.546875 582.121094 Z M 409.546875 582.121094 "/>
<path style=" stroke:none;fill-rule:evenodd;fill:rgb(34.999084%,34.999084%,34.999084%);fill-opacity:1;" d="M 282.28125 564.835938 C 283.726562 565.546875 281.542969 569.097656 280.121094 568.34375 C 277.042969 566.707031 273.660156 565.761719 270.601562 565.753906 C 262.054688 565.734375 257.816406 573.0625 257.796875 582.121094 C 257.777344 591.175781 262.085938 598.527344 270.523438 598.546875 C 273.910156 598.554688 277.699219 597.410156 281.042969 595.464844 C 282.382812 594.6875 284.304688 598.199219 282.945312 598.953125 C 279.070312 601.105469 274.683594 602.359375 270.515625 602.351562 C 257.863281 602.324219 253.289062 592.953125 253.3125 581.792969 C 253.339844 570.632812 257.78125 561.921875 270.609375 561.949219 C 274.511719 561.957031 278.597656 563.007812 282.28125 564.835938 Z M 282.28125 564.835938 "/>
<path style="fill:none;stroke-width:7;stroke-linecap:round;stroke-linejoin:round;stroke:rgb(100%,100%,100%);stroke-opacity:1;stroke-miterlimit:10;" d="M 259.470359 590.464295 C 260.116659 591.377935 260.732642 592.252989 261.321064 593.09497 C 269.509367 588.240142 278.947551 583.761517 289.989771 579.533696 C 294.093568 590.902511 294.498712 598.51066 294.764673 611.371891 C 294.785344 612.399907 294.785344 613.386583 294.770185 614.337429 C 306.62407 616.889556 316.292386 620.636442 324.075545 623.360823 C 320.305233 631.376871 317.605656 636.391552 312.236819 643.342377 C 310.73338 645.288167 309.304354 646.988666 307.893243 648.529313 C 307.36132 652.116346 306.436656 655.615185 305.159215 658.987245 C 301.472963 668.714816 294.861136 677.400591 286.371042 683.903553 C 271.394523 695.421196 253.139651 698.506624 235.619274 696.688992 C 220.473256 695.119406 207.162785 689.943495 196.106784 681.323866 C 183.059519 671.152566 173.681969 655.863232 167.066007 636.685074 C 165.252509 631.426481 164.093579 627.915239 162.732077 623.436615 C 161.986559 622.248746 161.245174 621.034695 160.506546 619.79446 C 160.830385 619.602913 161.154223 619.414122 161.475306 619.229465 L 161.385734 618.924918 L 161.76745 619.059966 C 172.196444 613.083414 180.766463 610.608458 192.948321 608.333317 C 193.930862 608.151415 194.883086 607.995697 195.810506 607.868918 C 195.277205 597.005843 195.919371 585.885074 197.47242 575.534629 C 207.534855 577.321945 213.723625 579.646695 223.78606 584.206624 C 224.760333 584.647596 225.698777 585.100971 226.601392 585.565369 C 230.007902 579.226394 233.691398 573.190586 237.755233 567.241596 C 246.767603 574.604454 252.376218 580.434933 259.470359 590.464295 Z M 259.470359 590.464295 " transform="matrix(2.834646,0,0,2.834646,-441.498715,-1598.003148)"/>
<path style=" stroke:none;fill-rule:evenodd;fill:rgb(100%,100%,100%);fill-opacity:1;" d="M 294.007812 75.753906 C 295.839844 78.34375 297.585938 80.824219 299.253906 83.210938 C 322.464844 69.449219 349.21875 56.753906 380.519531 44.769531 C 392.152344 76.996094 393.300781 98.5625 394.054688 135.019531 C 394.113281 137.933594 394.113281 140.730469 394.070312 143.425781 C 427.671875 150.660156 455.078125 161.28125 477.140625 169.003906 C 466.453125 191.726562 458.800781 205.941406 443.582031 225.644531 C 439.320312 231.160156 435.269531 235.980469 431.269531 240.347656 C 429.761719 250.515625 427.140625 260.433594 423.519531 269.992188 C 413.070312 297.566406 394.328125 322.1875 370.261719 340.621094 C 327.808594 373.269531 276.0625 382.015625 226.398438 376.863281 C 183.464844 372.414062 145.734375 357.742188 114.394531 333.308594 C 77.410156 304.476562 50.828125 261.136719 32.074219 206.773438 C 26.933594 191.867188 23.648438 181.914062 19.789062 169.21875 C 17.675781 165.851562 15.574219 162.410156 13.480469 158.894531 C 14.398438 158.351562 15.316406 157.816406 16.226562 157.292969 L 15.972656 156.429688 L 17.054688 156.8125 C 46.617188 139.871094 70.910156 132.855469 105.441406 126.40625 C 108.226562 125.890625 110.925781 125.449219 113.554688 125.089844 C 112.042969 94.296875 113.863281 62.773438 118.265625 33.433594 C 146.789062 38.5 164.332031 45.089844 192.855469 58.015625 C 195.617188 59.265625 198.277344 60.550781 200.835938 61.867188 C 210.492188 43.898438 220.933594 26.789062 232.453125 9.925781 C 258 30.796875 273.898438 47.324219 294.007812 75.753906 Z M 294.007812 75.753906 "/>
<path style=" stroke:none;fill-rule:evenodd;fill:rgb(47.999573%,71.998596%,0%);fill-opacity:1;" d="M 432.527344 212.894531 C 429.730469 215.117188 427.800781 215.996094 425.496094 218.699219 C 402.179688 246.058594 411.527344 247.472656 381.976562 276.40625 C 337.175781 320.277344 283.054688 325.679688 255.476562 331.226562 C 300.054688 310.96875 338.976562 295.167969 360.082031 256.636719 C 341.242188 256.820312 314.84375 275.605469 285.921875 287.121094 C 190.089844 325.277344 100.929688 291.285156 32.074219 206.773438 C 50.828125 261.136719 77.410156 304.476562 114.394531 333.308594 C 145.734375 357.742188 183.464844 372.414062 226.398438 376.863281 C 276.0625 382.015625 327.75 373.191406 370.261719 340.621094 C 410.089844 310.109375 435.34375 262.660156 432.527344 212.894531 Z M 432.527344 212.894531 "/>
<path style=" stroke:none;fill-rule:evenodd;fill:rgb(100%,59.999084%,10.00061%);fill-opacity:1;" d="M 232.453125 9.925781 C 157.164062 120.1875 127.761719 240.945312 197.558594 292.265625 L 199.910156 292.265625 C 154.996094 243.046875 167.941406 149.6875 294.007812 75.753906 C 273.898438 47.324219 258 30.796875 232.453125 9.925781 Z M 232.453125 9.925781 "/>
<path style=" stroke:none;fill-rule:evenodd;fill:rgb(89.997864%,10.00061%,49.998474%);fill-opacity:1;" d="M 192.855469 58.015625 C 151.742188 142.027344 127.417969 225.625 174.261719 282.4375 C 115.769531 236.527344 104.617188 124.449219 118.265625 33.433594 C 146.789062 38.5 164.332031 45.089844 192.855469 58.015625 Z M 192.855469 58.015625 "/>
<path style=" stroke:none;fill-rule:evenodd;fill:rgb(19.999695%,69.998169%,89.997864%);fill-opacity:1;" d="M 212.917969 292.535156 C 199.601562 279.140625 187.726562 263.476562 186.347656 240.546875 C 185.160156 220.859375 192.082031 181.605469 231.910156 156.589844 C 273.082031 130.730469 324.269531 132.542969 368.453125 138.832031 C 414.035156 145.324219 449.714844 159.402344 477.140625 169.003906 C 466.453125 191.726562 458.800781 205.941406 443.582031 225.644531 C 444.097656 215.882812 440.742188 202.449219 432.558594 202.832031 C 421.84375 203.328125 410.730469 220.871094 406.371094 227.78125 C 386.480469 259.296875 377.882812 272.382812 340.40625 295.429688 C 354.863281 283.382812 375.597656 259.773438 368.136719 250.652344 C 362.609375 243.886719 350.664062 246.242188 329.367188 255.824219 C 306.824219 265.964844 295.121094 273.996094 271.722656 281.964844 C 243.957031 291.421875 221.167969 291.425781 212.917969 292.535156 Z M 212.917969 292.535156 "/>
<path style=" stroke:none;fill-rule:evenodd;fill:rgb(0%,37.498474%,67.498779%);fill-opacity:1;" d="M 13.480469 158.894531 C 44.6875 140.4375 69.527344 133.113281 105.441406 126.40625 C 111.691406 193.65625 119.917969 245.320312 167.421875 288.203125 C 105.804688 274.039062 57.570312 232.90625 13.480469 158.894531 Z M 13.480469 158.894531 "/>
<path style=" stroke:none;fill-rule:evenodd;fill:rgb(100%,84.999084%,0%);fill-opacity:1;" d="M 394.054688 135.019531 C 318.144531 120.574219 251.851562 120.871094 205.867188 165.371094 C 243.847656 115.25 295.386719 77.359375 380.519531 44.769531 C 392.152344 76.996094 393.300781 98.5625 394.054688 135.019531 Z M 394.054688 135.019531 "/>
</g>
</svg>
